:FULLY-SPECIFIED
:FORCE-ALL-JOINTS-BE-3DOF
:DEGREES
883
root 3.88781 16.5131 30.436 -11.7519 22.0778 360.523
lfemur -14.2011 17.6782 -20.0651
ltibia 39.8113 0 0
lfoot -13.2236 -3.08056 0
ltoes -1.27055 0 0
rfemur -81.6617 -22.4808 37.6083
rtibia 95.7294 0 0
rfoot 16.4783 25.7797 0
rtoes -15.4014 0 0
lowerback 16.2098 -3.55086 -7.29228
upperback 5.45066 -5.86319 -2.81901
thorax -2.78771 -2.90308 2.15731
lowerneck -7.51379 -2.98934 1.90464
upperneck 3.86596 -4.46181 4.8133
head 2.61462 -2.02602 1.01362
lclavicle 3.70918e-14 9.15835e-15 0
lhumerus -32.9309 -39.014 86.4484
lradius 61.936 0 0
lwrist 21.8407 0 0
lhand 23.995 11.4111 0
lfingers 7.12502 0 0
lthumb 48.2397 33.5342 0
rclavicle 3.70918e-14 9.15835e-15 0
rhumerus -48.9721 -29.2239 -45.6609
rradius 69.3003 0 0
rwrist -22.6354 0 0
rhand -42.536 -41.9041 0
rfingers 7.12502 0 0
rthumb -15.411 -791.438 0
884
root 3.87523 16.5153 30.4862 -11.3608 22.6273 360.376
lfemur -14.7181 18.4667 -20.0173
ltibia 40.016 0 0
lfoot -13.3747 -2.62106 0
ltoes -1.57088 0 0
rfemur -80.412 -23.0194 36.4917
rtibia 97.7709 0 0
rfoot 16.9443 25.3181 0
rtoes -14.5521 0 0
lowerback 15.824 -3.68892 -7.28732
upperback 5.29391 -6.01919 -2.7521
thorax -2.72514 -2.98077 2.21775
lowerneck -7.51919 -3.11477 1.79936
upperneck 3.91845 -4.62515 4.85957
head 2.64239 -2.10605 1.03818
lclavicle 3.66217e-14 1.04862e-14 0
lhumerus -33.4666 -39.594 87.3637
lradius 61.9665 0 0
lwrist 21.334 0 0
lhand 24.3607 11.5746 0
lfingers 7.12502 0 0
lthumb 48.5788 33.5549 0
rclavicle 3.66217e-14 1.04862e-14 0
rhumerus -48.9089 -29.0315 -46.7088
rradius 70.9375 0 0
rwrist -22.987 0 0
rhand -43.3409 -42.8469 0
rfingers 7.12502 0 0
rthumb -16.1852 -792.451 0
885
root 3.85858 16.5186 30.5521 -10.8208 23.3591 360.169
lfemur -15.4467 19.5267 -19.9563
ltibia 40.2854 0 0
lfoot -13.5622 -2.13995 0
ltoes -1.83253 0 0
rfemur -78.507 -23.7676 34.8849
rtibia 100.201 0 0
rfoot 17.4553 24.5863 0
rtoes -13.5536 0 0
lowerback 15.2631 -3.86583 -7.27618
upperback 5.06466 -6.21386 -2.64917
thorax -2.63832 -3.07777 2.30362
lowerneck -7.52882 -3.29219 1.65584
upperneck 4.00527 -4.85703 4.91858
head 2.68605 -2.21943 1.06979
lclavicle 3.59721e-14 1.21351e-14 0
lhumerus -34.2495 -40.3213 88.6215
lradius 62.023 0 0
lwrist 20.6218 0 0
lhand 24.7673 11.7371 0
lfingers 7.12502 0 0
lthumb 48.9548 33.5519 0
rclavicle 3.59721e-14 1.21351e-14 0
rhumerus -48.8233 -28.6094 -48.1981
rradius 73.1355 0 0
rwrist -23.2204 0 0
rhand -44.0808 -44.0954 0
rfingers 7.12502 0 0
rthumb -16.8963 -793.789 0
886
root 3.83856 16.5227 30.6308 -10.1475 24.2336 359.907
lfemur -16.3685 20.8101 -19.8838
ltibia 40.6117 0 0
lfoot -13.7739 -1.69858 0
ltoes -1.99293 0 0
rfemur -75.9376 -24.6861 32.8097
rtibia 102.794 0 0
rfoot 17.9436 23.5528 0
rtoes -12.4555 0 0
lowerback 14.5343 -4.06905 -7.25519
upperback 4.76551 -6.43088 -2.5113
thorax -2.53006 -3.18595 2.41006
lowerneck -7.54247 -3.51784 1.47798
upperneck 4.12711 -5.15258 4.98657
head 2.74546 -2.3638 1.1068
lclavicle 3.51525e-14 1.39824e-14 0
lhumerus -35.2719 -41.1432 90.1835
lradius 62.1062 0 0
lwrist 19.7246 0 0
lhand 25.1745 11.8783 0
lfingers 7.12502 0 0
lthumb 49.3303 33.5183 0
rclavicle 3.51525e-14 1.39824e-14 0
rhumerus -48.7167 -27.9001 -50.1129
rradius 75.8159 0 0
rwrist -23.2451 0 0
rhand -44.5777 -45.552 0
rfingers 7.12502 0 0
rthumb -17.3726 -795.345 0
887
root 3.81601 16.5273 30.7194 -9.36339 25.1991 359.606
lfemur -17.4503 22.2536 -19.8
ltibia 40.9884 0 0
lfoot -13.9986 -1.33655 0
ltoes -2.00909 0 0
rfemur -72.7493 -25.711 30.3199
rtibia 105.337 0 0
rfoot 18.351 22.1978 0
rtoes -11.267 0 0
lowerback 13.6576 -4.28397 -7.21979
upperback 4.40461 -6.65215 -2.34388
thorax -2.4047 -3.2963 2.52845
lowerneck -7.55898 -3.78473 1.27075
upperneck 4.27993 -5.50244 5.05945
head 2.81859 -2.53467 1.14754
lclavicle 3.41754e-14 1.59048e-14 0
lhumerus -36.5079 -42.0039 91.9947
lradius 62.2118 0 0
lwrist 18.6781 0 0
lhand 25.5561 11.9899 0
lfingers 7.12502 0 0
lthumb 49.6806 33.455 0
rclavicle 3.41754e-14 1.59048e-14 0
rhumerus -48.59 -26.8673 -52.4178
rradius 78.884 0 0
rwrist -23.0103 0 0
rhand -44.6834 -47.0809 0
rfingers 7.12502 0 0
rthumb -17.4718 -796.972 0
888
root 3.79188 16.5318 30.8147 -8.49859 26.1919 359.285
lfemur -18.6446 23.7788 -19.7037
ltibia 41.4105 0 0
lfoot -14.2265 -1.0717 0
ltoes -1.85767 0 0
rfemur -69.0417 -26.7543 27.501
rtibia 107.631 0 0
rfoot 18.6286 20.5139 0
rtoes -9.95643 0 0
lowerback 12.666 -4.4939 -7.16461
upperback 3.99566 -6.85781 -2.15665
thorax -2.2682 -3.39891 2.64638
lowerneck -7.57625 -4.08261 1.04027
upperneck 4.45497 -5.89275 5.13283
head 2.90143 -2.72546 1.19031
lclavicle 3.30565e-14 1.77781e-14 0
lhumerus -37.9135 -42.8452 93.9838
lradius 62.331 0 0
lwrist 17.5331 0 0
lhand 25.8998 12.0756 0
lfingers 7.12502 0 0
lthumb 49.9946 33.3708 0
rclavicle 3.30565e-14 1.77781e-14 0
rhumerus -48.4438 -25.4958 -55.0579
rradius 82.2284 0 0
rwrist -22.5051 0 0
rhand -44.2803 -48.5084 0
rfingers 7.12502 0 0
rthumb -17.081 -798.481 0
889
root 3.76724 16.5354 30.9134 -7.59049 27.136 358.968
lfemur -19.8894 25.2916 -19.5925
ltibia 41.8742 0 0
lfoot -14.4487 -0.900141 0
ltoes -1.5349 0 0
rfemur -64.9691 -27.7035 24.4703
rtibia 109.492 0 0
rfoot 18.7371 18.5056 0
rtoes -8.4516 0 0
lowerback 11.6053 -4.68009 -7.08337
upperback 3.55795 -7.0262 -1.96366
thorax -2.12808 -3.48298 2.74771
lowerneck -7.5912 -4.39798 0.793737
upperneck 4.63874 -6.3051 5.20199
head 2.98807 -2.92744 1.23337
lclavicle 3.18143e-14 1.94771e-14 0
lhumerus -39.4266 -43.606 96.0623
lradius 62.4498 0 0
lwrist 16.3554 0 0
lhand 26.2072 12.1515 0
lfingers 7.12502 0 0
lthumb 50.2737 33.2825 0
rclavicle 3.18143e-14 1.94771e-14 0
rhumerus -48.2783 -23.7911 -57.9589
rradius 85.7216 0 0
rwrist -21.7581 0 0
rhand -43.281 -49.6225 0
rfingers 7.12502 0 0
rthumb -16.1166 -799.644 0
890
root 3.74326 16.5371 31.0122 -6.68383 27.9435 358.688
lfemur -21.1084 26.6832 -19.4626
ltibia 42.3773 0 0
lfoot -14.6576 -0.7962 0
ltoes -1.05664 0 0
rfemur -60.7401 -28.4218 21.377
rtibia 110.748 0 0
rfoot 18.6464 16.1892 0
rtoes -6.63964 0 0
lowerback 10.5342 -4.82167 -6.96899
upperback 3.11629 -7.1339 -1.78331
thorax -1.99344 -3.53682 2.81249
lowerneck -7.59984 -4.71413 0.539469
upperneck 4.81302 -6.71659 5.26191
head 3.07065 -3.1298 1.27497
lclavicle 3.04707e-14 2.08758e-14 0
lhumerus -40.967 -44.2225 98.1256
lradius 62.5496 0 0
lwrist 15.2259 0 0
lhand 26.4938 12.2455 0
lfingers 7.12502 0 0
lthumb 50.5328 33.2146 0
rclavicle 3.04707e-14 2.08758e-14 0
rhumerus -48.0936 -21.7798 -61.0271
rradius 89.2196 0 0
rwrist -20.8379 0 0
rhand -41.6285 -50.1732 0
rfingers 7.12502 0 0
rthumb -14.5244 -800.192 0
891
root 3.72124 16.5357 31.1074 -5.83072 28.5141 358.483
lfemur -22.2106 27.829 -19.3091
ltibia 42.919 0 0
lfoot -14.8468 -0.712468 0
ltoes -0.45835 0 0
rfemur -56.6178 -28.7479 18.4021
rtibia 111.243 0 0
rfoot 18.3359 13.5933 0
rtoes -4.36706 0 0
lowerback 9.52419 -4.89574 -6.81349
upperback 2.70108 -7.1557 -1.6383
thorax -1.87495 -3.54784 2.81704
lowerneck -7.59719 -5.01107 0.286892
upperneck 4.95486 -7.0998 5.30729
head 3.13937 -3.31958 1.31331
lclavicle 2.90504e-14 2.18473e-14 0
lhumerus -42.4364 -44.6282 100.052
lradius 62.6067 0 0
lwrist 14.2406 0 0
lhand 26.7893 12.3978 0
lfingers 7.12502 0 0
lthumb 50.7998 33.1994 0
rclavicle 2.90504e-14 2.18473e-14 0
rhumerus -47.8892 -19.5091 -64.1494
rradius 92.562 0 0
rwrist -19.8527 0 0
rhand -39.296 -49.8724 0
rfingers 7.12502 0 0
rthumb -12.2797 -799.816 0
892
root 3.70258 16.5299 31.1952 -5.09063 28.7357 358.395
lfemur -23.0907 28.5895 -19.1254
ltibia 43.4997 0 0
lfoot -15.0108 -0.579779 0
ltoes 0.204887 0 0
rfemur -52.9197 -28.4963 15.7583
rtibia 110.834 0 0
rfoot 17.7945 10.7583 0
rtoes -1.43973 0 0
lowerback 8.65985 -4.87729 -6.60806
upperback 2.34828 -7.06464 -1.5557
thorax -1.78487 -3.50256 2.73387
lowerneck -7.57736 -5.26558 0.0465419
upperneck 5.03659 -7.4228 5.33246
head 3.18249 -3.48172 1.34657
lclavicle 2.75814e-14 2.22639e-14 0
lhumerus -43.7184 -44.7538 101.704
lradius 62.5927 0 0
lwrist 13.5106 0 0
lhand 27.1369 12.6605 0
lfingers 7.12502 0 0
lthumb 51.1155 33.2772 0
rclavicle 2.75814e-14 2.22639e-14 0
rhumerus -47.6645 -17.0476 -67.1931
rradius 95.572 0 0
rwrist -18.9504 0 0
rhand -36.2871 -48.3939 0
rfingers 7.12502 0 0
rthumb -9.38682 -798.165 0
893
root 3.70083 16.5286 31.2056 -5.00783 28.724 358.398
lfemur -23.1831 28.6503 -19.1041
ltibia 43.5872 0 0
lfoot -15.0323 -0.542143 0
ltoes 0.30665 0 0
rfemur -52.4843 -28.3927 15.4511
rtibia 110.674 0 0
rfoot 17.6872 10.3471 0
rtoes -0.952705 0 0
lowerback 8.56459 -4.86393 -6.57459
upperback 2.30957 -7.03935 -1.55171
thorax -1.77689 -3.48996 2.71271
lowerneck -7.57252 -5.2942 0.0162455
upperneck 5.04005 -7.45831 5.33278
head 3.18503 -3.49988 1.35017
lclavicle 2.73837e-14 2.22442e-14 0
lhumerus -43.8658 -44.7345 101.889
lradius 62.583 0 0
lwrist 13.4466 0 0
lhand 27.1859 12.7083 0
lfingers 7.12502 0 0
lthumb 51.1602 33.3001 0
rclavicle 2.73837e-14 2.22442e-14 0
rhumerus -47.6266 -16.7016 -67.581
rradius 95.9268 0 0
rwrist -18.8414 0 0
rhand -35.7847 -48.0423 0
rfingers 7.12502 0 0
rthumb -8.90413 -797.776 0
894
root 3.69729 16.5241 31.2336 -4.78748 28.6441 358.421
lfemur -23.4321 28.7947 -19.0605
ltibia 43.8652 0 0
lfoot -15.0989 -0.391619 0
ltoes 0.643481 0 0
rfemur -51.2717 -28.0118 14.6071
rtibia 110.07 0 0
rfoot 17.3081 9.08914 0
rtoes 0.605036 0 0
lowerback 8.3104 -4.81231 -6.46941
upperback 2.206 -6.95021 -1.54579
thorax -1.75923 -3.44553 2.64097
lowerneck -7.55581 -5.37215 -0.0698649
upperneck 5.04277 -7.55398 5.3287
head 3.18908 -3.54929 1.35911
lclavicle 2.68113e-14 2.20714e-14 0
lhumerus -44.2732 -44.6278 102.385
lradius 62.5484 0 0
lwrist 13.3 0 0
lhand 27.317 12.8561 0
lfingers 7.12502 0 0
lthumb 51.2796 33.3816 0
rclavicle 2.68113e-14 2.20714e-14 0
rhumerus -47.4948 -15.6671 -68.6829
rradius 96.8962 0 0
rwrist -18.5171 0 0
rhand -34.1296 -46.8119 0
rfingers 7.12502 0 0
rthumb -7.31436 -796.416 0
895
root 3.69389 16.516 31.2746 -4.46769 28.4421 358.484
lfemur -23.7951 28.9674 -19.0152
ltibia 44.3418 0 0
lfoot -15.2093 -0.0980135 0
ltoes 1.24308 0 0
rfemur -49.4196 -27.2771 13.3374
rtibia 108.873 0 0
rfoot 16.6006 6.98725 0
rtoes 3.29908 0 0
lowerback 7.94011 -4.70917 -6.28921
upperback 2.05478 -6.78252 -1.54582
thorax -1.73954 -3.36194 2.50988
lowerneck -7.52511 -5.48799 -0.204023
upperneck 5.03553 -7.6944 5.31455
head 3.19034 -3.62261 1.37107
lclavicle 2.59002e-14 2.16148e-14 0
lhumerus -44.8894 -44.3773 103.113
lradius 62.4829 0 0
lwrist 13.1282 0 0
lhand 27.509 13.1058 0
lfingers 7.12502 0 0
lthumb 51.4546 33.5336 0
rclavicle 2.59002e-14 2.16148e-14 0
rhumerus -47.2548 -13.9681 -70.403
rradius 98.3447 0 0
rwrist -17.9856 0 0
rhand -31.1924 -44.5256 0
rfingers 7.12502 0 0
rthumb -4.49336 -793.89 0
896
root 3.69173 16.5041 31.3249 -4.08122 28.0817 358.597
lfemur -24.2303 29.1156 -18.9759
ltibia 45.0045 0 0
lfoot -15.3565 0.333889 0
ltoes 2.10699 0 0
rfemur -47.0623 -26.1503 11.7459
rtibia 106.993 0 0
rfoot 15.5468 4.09731 0
rtoes 7.08914 0 0
lowerback 7.49055 -4.54666 -6.03578
upperback 1.87095 -6.52851 -1.55807
thorax -1.72315 -3.2353 2.31543
lowerneck -7.47974 -5.63089 -0.377664
upperneck 5.01219 -7.86534 5.28718
head 3.18583 -3.7129 1.38431
lclavicle 2.46934e-14 2.07965e-14 0
lhumerus -45.6635 -43.9493 103.998
lradius 62.3828 0 0
lwrist 12.974 0 0
lhand 27.745 13.4524 0
lfingers 7.12502 0 0
lthumb 51.6696 33.7595 0
rclavicle 2.46934e-14 2.07965e-14 0
rhumerus -46.9084 -11.6534 -72.6418
rradius 100.145 0 0
rwrist -17.2599 0 0
rhand -26.9662 -41.122 0
rfingers 7.12502 0 0
rthumb -0.434754 -790.131 0
